HIERARCHY
ROOT Hips
{
	OFFSET 0.00000 0.00000 0.00000
	CHANNELS 6 Xposition Yposition Zposition Zrotation Yrotation Xrotation 
	JOINT LHipJoint
	{
		OFFSET 0 0 0
		CHANNELS 3 Zrotation Yrotation Xrotation
		JOINT LeftHip
		{
			OFFSET 1.55766 -1.60504 1.11378
			CHANNELS 3 Zrotation Yrotation Xrotation
			JOINT LeftKnee
			{
				OFFSET 2.29047 -6.29302 0.00000
				CHANNELS 3 Zrotation Yrotation Xrotation
				JOINT LeftAnkle
				{
					OFFSET 2.52265 -6.93093 0.00000
					CHANNELS 3 Zrotation Yrotation Xrotation
					JOINT LeftToe
					{
						OFFSET 0.17633 -0.48446 2.02656
						CHANNELS 3 Zrotation Yrotation Xrotation
						End Site
						{
							OFFSET 0.00000 -0.00000 1.04989
						}
					}
				}
			}
		}
	}
	JOINT RHipJoint
	{
		OFFSET 0 0 0
		CHANNELS 3 Zrotation Yrotation Xrotation
		JOINT RightHip
		{
			OFFSET -1.48599 -1.60504 1.11378
			CHANNELS 3 Zrotation Yrotation Xrotation
			JOINT RightKnee
			{
				OFFSET -2.27280 -6.24448 0.00000
				CHANNELS 3 Zrotation Yrotation Xrotation
				JOINT RightAnkle
				{
					OFFSET -2.50834 -6.89161 0.00000
					CHANNELS 3 Zrotation Yrotation Xrotation
					JOINT RightToe
					{
						OFFSET -0.26967 -0.74090 2.08741
						CHANNELS 3 Zrotation Yrotation Xrotation
						End Site
						{
							OFFSET -0.00000 -0.00000 1.10614
						}
					}
				}
			}
		}
	}
	JOINT lowerback
	{
		OFFSET 0 0 0
		CHANNELS 3 Zrotation Yrotation Xrotation
		JOINT Chest
		{
			OFFSET 0.06481 2.02437 -0.08472
			CHANNELS 3 Zrotation Yrotation Xrotation
			JOINT Chest2
			{
				OFFSET 0.00015 1.96711 0.18069
				CHANNELS 3 Zrotation Yrotation Xrotation
				JOINT lowerneck
				{
					OFFSET 0 0 0
					CHANNELS 3 Zrotation Yrotation Xrotation
					JOINT Neck
					{
						OFFSET -0.29961 1.68293 -0.13041
						CHANNELS 3 Zrotation Yrotation Xrotation
						JOINT Head
						{
							OFFSET 0.59697 1.61501 -0.14669
							CHANNELS 3 Zrotation Yrotation Xrotation
							End Site
							{
								OFFSET 0.22973 1.74906 -0.10148
							}
						}
					}
				}
				JOINT LeftCollar
				{
					OFFSET 0 0 0
					CHANNELS 3 Zrotation Yrotation Xrotation
					JOINT LeftShoulder
					{
						OFFSET 3.37968 1.02893 0.31147
CHANNELS 3 Zrotation Xrotation Yrotation
						JOINT LeftElbow
						{
OFFSET 0 -5.198070 -0.000000
CHANNELS 3 Zrotation Xrotation Yrotation
							JOINT LeftWrist
							{
OFFSET 0 -3.093700 -0.000000
CHANNELS 3 Zrotation Xrotation Yrotation
								JOINT lhand
								{
									OFFSET 0 0 0
CHANNELS 3 Zrotation Xrotation Yrotation
									JOINT LFingers
									{
OFFSET 0 -0.672630 -0.000000
CHANNELS 3 Zrotation Xrotation Yrotation
										End Site
										{
OFFSET 0 -0.542290 -0.000000
										}
									}
								}
								JOINT LThumb
								{
OFFSET 0 0.000000 0.000000
CHANNELS 3 Zrotation Xrotation Yrotation
									End Site
									{
OFFSET 0 -0.550570 0.550570
									}
								}
							}
						}
					}
				}
				JOINT RightCollar
				{
					OFFSET 0 0 0
					CHANNELS 3 Zrotation Yrotation Xrotation
					JOINT RightShoulder
					{
						OFFSET -3.38254 0.96355 -0.16120
CHANNELS 3 Zrotation Xrotation Yrotation
						JOINT RightElbow
						{
OFFSET 0 -5.452220 -0.000000
CHANNELS 3 Zrotation Xrotation Yrotation
							JOINT RightWrist
							{
OFFSET 0 -3.012840 -0.000000
CHANNELS 3 Zrotation Xrotation Yrotation
								JOINT rhand
								{
									OFFSET 0 0 0
CHANNELS 3 Zrotation Xrotation Yrotation
									JOINT RFingers
									{
OFFSET 0 -0.622300 -0.000000
CHANNELS 3 Zrotation Xrotation Yrotation
										End Site
										{
OFFSET 0 -0.501710 -0.000000
										}
									}
								}
								JOINT RThumb
								{
OFFSET 0 0.000000 0.000000
CHANNELS 3 Zrotation Xrotation Yrotation
									End Site
									{
OFFSET 0 -0.509370 0.509370
									}
								}
							}
						}
					}
				}
			}
		}
	}
}
MOTION
Frames: 10
Frame Time: 0.008333333333333333
1.189812 14.254633 33.483327 -362.799988 -13.559031 367.994908 0.000000 0.000000 0.000000 8.420058 -35.798424 -6.135719 5.402073 13.822721 42.531911 -1.158599 -27.694288 -11.876625 5.229098 -13.637194 -41.803167 0.000000 0.000000 0.000000 11.185177 -7.289963 -39.217827 -9.889618 -17.347267 59.118716 -1.946469 6.631679 -25.105805 -2.242979 9.354882 -26.911841 -3.156142 2.592100 4.201193 -1.697360 3.143685 -3.798511 -0.309653 1.649795 -6.389573 -22.622230 -22.304427 44.724804 49.662816 -33.565600 -29.873746 24.929213 -23.188211 -0.958280 0.000000 0.000000 0.000000 5.272075 51.227523 -25.410303 128.151814 -53.714227 92.342844 19.216115 -57.721893 24.876820 0.000000 0.000000 0.000000 -7.125000 0.000000 0.000000 -6.278237 3.961132 -5.865510 0.000000 0.000000 0.000000 -70.518913 -20.674288 -71.126573 -14.923813 -24.039853 -3.194821 -30.600278 21.549446 10.573133 0.000000 0.000000 0.000000 7.125000 0.000000 0.000000 -3.190632 42.193801 -0.221132
1.155950 14.259836 33.472158 -362.316270 -14.041093 367.947342 0.000000 0.000000 0.000000 7.943133 -35.489298 -5.817597 5.265194 13.676332 41.956071 -1.226323 -27.848530 -11.532044 5.242775 -13.652119 -41.861325 0.000000 0.000000 0.000000 10.781020 -6.893711 -39.427879 -9.960288 -17.387487 59.355484 -1.958398 6.634227 -25.185466 -2.230869 9.331282 -26.837170 -3.367655 2.687171 4.149763 -1.810990 3.251415 -3.797322 -0.318660 1.709219 -6.367706 -23.078237 -21.824434 44.544959 49.664452 -33.240092 -29.642784 25.112492 -22.987620 -0.891128 0.000000 0.000000 0.000000 5.851828 50.592585 -26.525710 127.605319 -53.916774 91.901777 19.187168 -57.037963 25.081338 0.000000 0.000000 0.000000 -7.125000 0.000000 0.000000 -6.314570 3.756036 -5.924093 0.000000 0.000000 0.000000 -70.394121 -20.869196 -70.458098 -15.100257 -24.285562 -3.267030 -30.825878 21.192654 10.768934 0.000000 0.000000 0.000000 7.125000 0.000000 0.000000 -3.387473 42.443838 -0.213866
1.140396 14.256697 33.466579 -362.082940 -14.532319 368.097090 0.000000 0.000000 0.000000 7.768302 -35.418550 -5.729804 5.197462 13.602701 41.668865 -1.275459 -28.082262 -11.422875 5.264175 -13.675196 -41.951742 0.000000 0.000000 0.000000 10.571437 -6.494142 -39.824596 -10.036995 -17.430559 59.611916 -1.965103 6.719028 -25.223652 -2.227402 9.324443 -26.815669 -3.236318 2.691086 3.928774 -1.872620 3.271334 -3.840063 -0.447201 1.711791 -6.274463 -23.587405 -21.293802 44.326039 49.701063 -32.893043 -29.370979 25.328963 -22.779367 -0.793076 0.000000 0.000000 0.000000 6.343940 49.878370 -27.567366 127.108752 -54.096955 91.500051 19.207666 -56.699054 25.247774 0.000000 0.000000 0.000000 -7.125000 0.000000 0.000000 -6.317381 3.581984 -5.947248 0.000000 0.000000 0.000000 -70.441876 -21.308117 -69.549043 -15.184639 -24.402654 -3.301876 -30.998605 20.140393 10.956657 0.000000 0.000000 0.000000 7.125000 0.000000 0.000000 -3.537260 42.679388 -0.202815
1.139462 14.245852 33.467037 -362.038255 -15.041730 368.327396 0.000000 0.000000 0.000000 7.775526 -35.475842 -5.754272 5.185419 13.589672 41.617851 -1.321836 -28.440266 -11.482874 5.306458 -13.720805 -42.130304 0.000000 0.000000 0.000000 10.493445 -6.155389 -40.289135 -10.115517 -17.474307 59.873612 -1.967516 6.922020 -25.225805 -2.237180 9.343608 -26.876322 -2.874838 2.621149 3.622424 -1.893515 3.213672 -3.872881 -0.648579 1.666828 -6.108440 -24.024970 -20.795513 44.012791 49.750252 -32.533445 -29.102539 25.536952 -22.566030 -0.702541 0.000000 0.000000 0.000000 6.668756 49.059270 -28.426202 126.633230 -54.266231 91.114407 19.199723 -56.603356 25.308229 0.000000 0.000000 0.000000 -7.125000 0.000000 0.000000 -6.327895 3.521296 -5.964341 0.000000 0.000000 0.000000 -70.530288 -22.002256 -68.464639 -15.310184 -24.576444 -3.353912 -31.023438 18.768930 10.991353 0.000000 0.000000 0.000000 7.125000 0.000000 0.000000 -3.558574 42.722191 -0.200273
1.149097 14.229437 33.467151 -362.167344 -15.605261 368.578426 0.000000 0.000000 0.000000 7.977104 -35.541128 -5.879110 5.216073 13.623045 41.747959 -1.385345 -28.972086 -11.624753 5.363669 -13.781932 -42.370882 0.000000 0.000000 0.000000 10.551674 -5.761962 -40.743231 -10.190854 -17.515750 60.124356 -1.961842 7.154037 -25.173874 -2.252460 9.373287 -26.970076 -2.396663 2.502442 3.375764 -1.861356 3.095798 -3.914492 -0.858566 1.588933 -5.982802 -24.355784 -20.349960 43.659785 49.761563 -32.171057 -28.827328 25.708845 -22.345859 -0.645434 0.000000 0.000000 0.000000 6.791513 48.174591 -29.068777 126.085960 -54.457078 90.669651 19.251197 -56.594194 25.331320 0.000000 0.000000 0.000000 -7.125000 0.000000 0.000000 -6.298708 3.489049 -5.940380 0.000000 0.000000 0.000000 -70.532810 -22.949865 -67.309784 -15.556685 -24.915828 -3.457096 -31.130748 17.740334 10.902456 0.000000 0.000000 0.000000 7.125000 0.000000 0.000000 -3.659923 42.632169 -0.214146
1.169134 14.210993 33.466400 -362.413275 -16.210100 368.778265 0.000000 0.000000 0.000000 8.250174 -35.579404 -5.995556 5.273405 13.685214 41.990882 -1.467744 -29.647281 -11.809428 5.434061 -13.856512 -42.665589 0.000000 0.000000 0.000000 10.689940 -5.375033 -41.108740 -10.251395 -17.548770 60.325241 -1.946078 7.445613 -25.054650 -2.260767 9.389369 -27.020996 -1.874761 2.353463 3.277918 -1.784850 2.934369 -3.996861 -1.053269 1.488569 -5.987946 -24.627006 -19.940895 43.387506 49.705547 -31.836200 -28.517594 25.839996 -22.133056 -0.616602 0.000000 0.000000 0.000000 6.782867 47.306810 -29.609449 125.374687 -54.698568 90.089988 19.492397 -56.537396 25.250310 0.000000 0.000000 0.000000 -7.125000 0.000000 0.000000 -6.144254 3.532150 -5.788039 0.000000 0.000000 0.000000 -70.264351 -23.898557 -65.477166 -16.028742 -25.559239 -3.658572 -31.369445 16.822933 10.815011 0.000000 0.000000 0.000000 7.125000 0.000000 0.000000 -3.880660 42.558638 -0.234174
1.200883 14.193237 33.469569 -362.679199 -16.874690 368.872439 0.000000 0.000000 0.000000 8.366998 -35.584268 -5.939935 5.343153 13.760091 42.284727 -1.542509 -30.319966 -12.064571 5.469419 -13.893619 -42.813032 0.000000 0.000000 0.000000 10.798552 -5.135743 -41.352140 -10.288189 -17.568776 60.447348 -1.919661 7.913909 -24.861815 -2.267694 9.402732 -27.063428 -1.356734 2.202649 3.299634 -1.716173 2.765479 -4.100380 -1.260441 1.383745 -6.086980 -24.827338 -19.574478 43.204603 49.593025 -31.535693 -28.157975 25.927796 -21.935622 -0.608744 0.000000 0.000000 0.000000 6.741997 46.464123 -30.153531 124.519469 -54.979870 89.390833 19.842678 -56.382304 25.015200 0.000000 0.000000 0.000000 -7.125000 0.000000 0.000000 -5.908277 3.715336 -5.543114 0.000000 0.000000 0.000000 -69.605074 -24.650584 -62.684577 -16.818950 -26.617645 -4.006276 -31.497514 15.490152 10.780273 0.000000 0.000000 0.000000 7.125000 0.000000 0.000000 -3.998585 42.533256 -0.243650
1.243242 14.177118 33.480317 -362.905694 -17.686954 368.876182 0.000000 0.000000 0.000000 8.213293 -35.496103 -5.668705 5.422273 13.844140 42.616614 -1.583657 -30.876505 -12.430285 5.442720 -13.865697 -42.702011 0.000000 0.000000 0.000000 10.808515 -5.007049 -41.509514 -10.304335 -17.577488 60.500809 -1.884788 8.594986 -24.619832 -2.281783 9.429904 -27.149661 -0.938577 2.068468 3.375034 -1.687783 2.610085 -4.188390 -1.457037 1.288030 -6.206241 -24.895010 -19.266332 42.952373 49.440405 -31.237381 -27.702272 25.940603 -21.734716 -0.607735 0.000000 0.000000 0.000000 6.684959 45.563312 -30.668605 123.493944 -55.304440 88.549207 20.085753 -56.185146 24.767309 0.000000 0.000000 0.000000 -7.125000 0.000000 0.000000 -5.735970 3.929961 -5.356771 0.000000 0.000000 0.000000 -68.533164 -25.302269 -59.418320 -17.970900 -28.118908 -4.536104 -30.314244 13.478130 10.524609 0.000000 0.000000 0.000000 7.125000 0.000000 0.000000 -2.934189 42.107205 -0.208711
1.296428 14.160253 33.490000 -363.128080 -18.726462 368.861609 0.000000 0.000000 0.000000 7.925825 -35.219139 -5.338127 5.523235 13.949822 43.036879 -1.596844 -31.339814 -12.880375 5.396593 -13.816945 -42.509214 0.000000 0.000000 0.000000 10.759651 -4.730670 -41.674750 -10.312895 -17.582148 60.529213 -1.836163 9.359470 -24.305461 -2.298826 9.462630 -27.253559 -0.646159 1.997219 3.464171 -1.694599 2.529941 -4.254556 -1.626313 1.233666 -6.315425 -24.890083 -18.969270 42.687293 49.362738 -30.925289 -27.203725 25.998540 -21.549997 -0.591915 0.000000 0.000000 0.000000 6.679896 44.500146 -31.226365 122.266524 -55.674965 87.537916 20.128767 -56.021896 24.580374 0.000000 0.000000 0.000000 -7.125000 0.000000 0.000000 -5.691747 4.115534 -5.295278 0.000000 0.000000 0.000000 -66.971293 -25.737524 -55.520522 -19.570332 -30.120584 -5.314315 -28.091523 10.803134 10.010607 0.000000 0.000000 0.000000 7.125000 0.000000 0.000000 -0.965239 41.292647 -0.088275
1.364063 14.142371 33.494353 -363.335691 -19.969544 368.834472 0.000000 0.000000 0.000000 7.530076 -34.761430 -5.039310 5.659639 14.090152 43.599916 -1.575431 -31.666947 -13.397431 5.353768 -13.771471 -42.329482 0.000000 0.000000 0.000000 10.634810 -4.270736 -41.870453 -10.312470 -17.581850 60.527586 -1.765242 10.171582 -23.867499 -2.307539 9.479322 -27.306492 -0.479326 1.971330 3.520457 -1.732980 2.502844 -4.233233 -1.758704 1.211228 -6.316791 -24.836557 -18.704844 42.307831 49.409496 -30.626378 -26.689816 26.090390 -21.397149 -0.520619 0.000000 0.000000 0.000000 6.642594 43.119786 -31.740572 120.779852 -56.097846 86.306844 20.056657 -55.842726 24.471852 0.000000 0.000000 0.000000 -7.125000 0.000000 0.000000 -5.725713 4.239422 -5.313907 0.000000 0.000000 0.000000 -64.895923 -25.809000 -50.424449 -21.704988 -32.637554 -6.428018 -28.745898 8.763727 10.500707 0.000000 0.000000 0.000000 7.125000 0.000000 0.000000 -1.521839 41.913701 -0.110892
